<?xml version="1.0" standalone="no"?><!DOCTYPE svg PUBLIC "-//W3C//DTD SVG 1.1//EN" "http://www.w3.org/Graphics/SVG/1.1/DTD/svg11.dtd"><svg t="1533209328596" class="icon" style="" viewBox="0 0 1026 1024" version="1.1" xmlns="http://www.w3.org/2000/svg" p-id="48132" xmlns:xlink="http://www.w3.org/1999/xlink" width="64.125" height="64"><defs><style type="text/css"></style></defs><path d="M471.380999 3.008815c5.014691 0 8.023506-3.008815 13.038198-3.008815H541.58668c10.029383 0 18.052889 3.008815 29.08521 3.008815 5.014691 0 8.023506 3.008815 10.029383 3.008815V11.032321h-8.023506c-3.008815 0-3.008815 0-5.014692 3.008815h-10.029383c-3.008815 3.008815-8.023506 3.008815-13.038197 3.008815-3.008815 0-3.008815 0-5.014692 3.008815h-5.014691c-3.008815 0-8.023506 3.008815-10.029383 3.008815-3.008815 3.008815-8.023506 3.008815-10.029383 3.008815-3.008815 3.008815-5.014691 3.008815-8.023507 3.008815-3.008815 0-5.014691 3.008815-8.023506 3.008814-5.014691 3.008815-10.029383 5.014691-16.047013 5.014692C451.322233 50.146915 419.228208 63.185113 393.151812 81.238002c-10.029383 5.014691-18.052889 13.038198-26.076396 18.052889-10.029383 8.023506-18.052889 13.038198-24.070519 21.061704l-26.076396 26.076396c-10.029383 13.038198-21.061704 24.070519-31.091087 39.114594-16.047013 24.070519-29.085211 47.1381-39.114593 71.208619-3.008815 5.014691-5.014691 13.038198-8.023507 18.052889-8.023506 24.070519-16.047013 50.146915-21.061704 76.223311 0 5.014691-3.008815 13.038198-3.008815 18.052889s-3.008815 8.023506-3.008815 13.038198-3.008815 10.029383-3.008814 16.047012c0 5.014691-3.008815 13.038198-3.008815 18.05289V482.41332c3.008815 8.023506 0 18.052889 3.008815 26.076396V532.560235c0 3.008815 0 8.023506 3.008814 10.029383 3.008815 8.023506 0 16.047013 3.008815 24.070519 0 5.014691 0 10.029383 3.008815 16.047013v34.099902c-3.008815 21.061704-10.029383 39.114594-24.070519 55.161606-16.047013 18.052889-39.114594 29.085211-63.185113 31.091087h-24.070519c-13.038198-3.008815-24.070519-5.014691-34.099902-13.038197-10.029383-5.014691-18.052889-13.038198-26.076395-21.061705-8.023506-10.029383-16.047013-21.061704-18.05289-34.099902-10.029383-37.108717-18.052889-73.214496-18.052889-110.323212-3.008815-8.023506 0-16.047013 0-21.061705v-18.052889c3.008815-8.023506 0-18.052889 0-26.076396 3.008815-10.029383 3.008815-21.061704 5.014691-34.099902 0-5.014691 3.008815-10.029383 3.008815-16.047012 16.047013-81.238002 50.146915-157.461312 102.299706-220.646425 0-5.014691 5.014691-10.029383 10.029383-18.05289 10.029383-13.038198 21.061704-24.070519 34.099903-34.099902 10.029383-8.023506 18.052889-18.052889 29.08521-26.076395 13.038198-10.029383 29.085211-24.070519 44.129285-31.091088 16.047013-10.029383 31.091087-18.052889 47.1381-26.076395C310.910872 39.114594 339.996082 29.085211 366.072478 21.061704c8.023506-3.008815 18.052889-5.014691 26.076396-8.023506 5.014691 0 13.038198-3.008815 18.052889-3.008815 3.008815 0 8.023506-3.008815 10.029383-3.008815 5.014691 0 10.029383-3.008815 16.047013-3.008815 5.014691 0 10.029383 0 16.047012-3.008815 0 2.005877 19.055828 2.005877 19.055828 2.005877z" fill="#FFCD17" p-id="48133"></path><path d="M594.742409 21.061704c5.014691 0 10.029383-3.008815 16.047013-3.008815h18.052889c55.161606 8.023506 107.314398 29.085211 154.452498 58.170421L806.36239 91.267385c39.114594 26.076396 71.208619 58.170421 102.299706 94.2762 21.061704 26.076396 39.114594 52.152791 55.161606 84.246817s29.085211 63.185113 39.114594 97.285014c5.014691 18.052889 10.029383 39.114594 13.038198 60.176298 3.008815 5.014691 0 13.038198 3.008815 21.061704 3.008815 5.014691 0 13.038198 3.008814 21.061704 3.008815 18.052889 3.008815 37.108717 3.008815 55.161607 0 10.029383 0 21.061704-3.008815 31.091087 0 5.014691 0 13.038198-3.008814 18.052889-3.008815 8.023506 0 16.047013-3.008815 21.061704-5.014691 31.091087-13.038198 63.185113-24.070519 92.270324-8.023506 18.052889-13.038198 34.099902-21.061705 52.152791-3.008815 5.014691-5.014691 13.038198-10.029383 18.052889v3.008815l-24.070519 39.114594c-4.011753 6.01763-7.020568 14.041136-14.041136 16.047012-3.008815-3.008815-5.014691-3.008815-3.008815-5.014691 3.008815-5.014691 3.008815-8.023506 5.014692-13.038198 0-3.008815 0-3.008815 3.008815-5.014691 0-3.008815 0-3.008815 3.008814-3.008815v-3.008815c0-3.008815 3.008815-8.023506 3.008815-10.029383 5.014691-13.038198 8.023506-26.076396 10.029383-39.114594 0-5.014691 3.008815-13.038198 5.014692-18.052889 0-8.023506 3.008815-13.038198 3.008815-18.052889s3.008815-10.029383 3.008815-16.047013v-24.070519c3.008815-5.014691 0-10.029383 0-18.052889v-37.108717c0-5.014691-3.008815-13.038198-3.008815-18.05289-3.008815-26.076396-10.029383-50.146915-18.05289-73.214495 0 0 0-3.008815-3.008815-3.008815l-8.023506-24.070519c0-3.008815-3.008815-3.008815-3.008815-5.014692-3.008815-3.008815-3.008815-8.023506-5.014691-10.029383 0-3.008815-3.008815-3.008815-3.008815-5.014691-10.029383-21.061704-26.076396-42.123408-39.114594-63.185113-5.014691-8.023506-13.038198-16.047013-18.052889-24.070519-5.014691-8.023506-13.038198-13.038198-18.052889-21.061704-3.008815-5.014691-8.023506-8.023506-10.029383-10.029383-5.014691-5.014691-10.029383-10.029383-18.05289-16.047013-5.014691-5.014691-8.023506-8.023506-13.038197-10.029383L732.144956 275.808031c-8.023506-5.014691-16.047013-8.023506-21.061704-13.038198-3.008815 0-3.008815-3.008815-5.014692-3.008814-3.008815 0-3.008815-3.008815-5.014691-3.008815-8.023506-5.014691-18.052889-8.023506-26.076396-13.038198-3.008815 0-3.008815-3.008815-5.014691-3.008815-3.008815 0-3.008815-3.008815-5.014692-3.008815-3.008815 0-3.008815-3.008815-5.014691-3.008815-10.029383-5.014691-18.052889-8.023506-29.085211-13.038198-10.029383-5.014691-18.052889-8.023506-29.085211-13.038197-3.008815 0-3.008815-3.008815-5.014691-3.008815-3.008815 0-3.008815-3.008815-5.014691-3.008815-3.008815-3.008815-8.023506-3.008815-10.029383-5.014692h-3.008815c-8.023506-5.014691-16.047013-10.029383-21.061705-18.052889-8.023506-8.023506-13.038198-16.047013-18.052889-26.076396s-8.023506-24.070519-8.023506-37.108717c0-5.014691 3.008815-10.029383 3.008815-16.047012 5.014691-21.061704 13.038198-39.114594 29.08521-52.152792-1.002938-14.041136 15.044074-22.064643 31.091087-27.079334z" fill="#40C33C" p-id="48134"></path><path d="M481.410382 293.860921c5.014691 0 13.038198-3.008815 18.052889-3.008815h34.099902c8.023506 0 13.038198 3.008815 21.061705 3.008815 5.014691 0 10.029383 3.008815 16.047012 3.008815 10.029383 3.008815 24.070519 8.023506 34.099902 13.038197 8.023506 5.014691 13.038198 8.023506 21.061705 13.038198 16.047013 13.038198 26.076396 29.085211 37.108717 47.1381 5.014691 13.038198 10.029383 26.076396 13.038197 39.114594 0 5.014691 3.008815 13.038198 3.008815 18.052889s3.008815 13.038198 3.008815 18.052889v24.070519c0 3.008815 3.008815 5.014691 3.008815 8.023507 5.014691 8.023506 10.029383 16.047013 16.047013 26.076395 10.029383 24.070519 21.061704 44.129285 26.076395 68.199805 3.008815 5.014691 0 13.038198 0 21.061704-3.008815 3.008815-5.014691 5.014691-8.023506 5.014691-13.038198 0-26.076396-5.014691-34.099902-16.047012l-8.023506-8.023507c-5.014691 5.014691-8.023506 10.029383-10.029383 18.05289-5.014691 10.029383-13.038198 21.061704-18.05289 34.099902 5.014691 5.014691 13.038198 5.014691 18.05289 8.023506 8.023506 5.014691 13.038198 10.029383 18.052889 18.052889 0 5.014691 0 13.038198-5.014691 16.047013-8.023506 8.023506-18.052889 13.038198-31.091088 16.047013-10.029383 3.008815-21.061704 5.014691-34.099902 5.014691-13.038198 3.008815-26.076396 0-42.123408 0-10.029383 0-18.052889-3.008815-29.085211-8.023506-10.029383-3.008815-21.061704-8.023506-34.099902-8.023507-10.029383 3.008815-21.061704 8.023506-31.091087 10.029383-8.023506 3.008815-16.047013 3.008815-24.070519 5.014692h-24.070519c-8.023506 0-16.047013-3.008815-21.061704-3.008815-13.038198-3.008815-26.076396-5.014691-37.108717-10.029383-5.014691-5.014691-13.038198-8.023506-16.047013-16.047013-3.008815-3.008815 0-8.023506 3.008815-10.029383 5.014691-10.029383 16.047013-18.052889 26.076396-21.061704 3.008815 0 5.014691-3.008815 5.014691-5.014691s-3.008815-5.014691-3.008815-10.029383c-5.014691-10.029383-13.038198-21.061704-18.052889-34.099902-3.008815-3.008815-3.008815-5.014691-5.014692-8.023507-5.014691 0-5.014691 3.008815-8.023506 5.014692-8.023506 8.023506-18.052889 16.047013-31.091087 16.047013-3.008815 0-8.023506 0-10.029383-5.014692 0-5.014691 3.008815-13.038198 3.008815-18.052889 5.014691-29.085211 16.047013-58.170421 31.091087-84.246817 3.008815-5.014691 8.023506-8.023506 10.029383-13.038198 3.008815-3.008815 0-8.023506 0-10.029383 0-8.023506 3.008815-13.038198 3.008815-21.061704 3.008815-8.023506 0-16.047013 3.008815-21.061704 3.008815-13.038198 5.014691-29.085211 10.029383-42.123409 5.014691-13.038198 13.038198-24.070519 18.052889-37.108717 5.014691-5.014691 8.023506-10.029383 13.038198-16.047012 5.014691-5.014691 10.029383-10.029383 16.047013-13.038198 8.023506-5.014691 16.047013-8.023506 24.070519-13.038198 5.014691-3.008815 10.029383-5.014691 18.052889-5.014692 7.020568 1.002938 12.03526 3.008815 17.049951 1.002939z" fill="#3E97DA" p-id="48135"></path><path d="M799.341822 703.059745c8.023506-3.008815 16.047013 0 21.061704 0 16.047013 3.008815 29.085211 8.023506 42.123408 18.05289 5.014691 3.008815 10.029383 8.023506 13.038198 13.038198 5.014691 5.014691 10.029383 13.038198 13.038198 18.052889 5.014691 10.029383 8.023506 18.052889 10.029383 29.08521v21.061705c0 13.038198-5.014691 26.076396-8.023506 39.114593-3.008815 5.014691-5.014691 10.029383-8.023507 13.038198-8.023506 10.029383-16.047013 16.047013-24.070519 26.076396-5.014691 8.023506-16.047013 13.038198-24.070519 21.061704s-16.047013 13.038198-26.076396 21.061704c-10.029383 10.029383-24.070519 16.047013-37.108717 26.076396-16.047013 8.023506-31.091087 18.052889-50.146914 26.076396-24.070519 10.029383-50.146915 21.061704-73.214496 26.076395-18.052889 5.014691-39.114594 10.029383-58.170421 13.038198-5.014691 3.008815-13.038198 0-21.061704 3.008815s-13.038198 0-21.061704 3.008815c-8.023506 0-16.047013 0-21.061705 3.008815-18.052889 0-37.108717 0-55.161606-3.008815-8.023506-3.008815-13.038198 0-21.061704-3.008815-5.014691-3.008815-13.038198 0-21.061704-3.008815-34.099902-5.014691-65.190989-13.038198-97.285015-26.076396-24.070519-8.023506-47.1381-18.052889-68.199804-31.091087-5.014691-5.014691-13.038198-8.023506-18.05289-10.029383-26.076396-16.047013-50.146915-34.099902-73.214495-52.152791-5.014691-5.014691-10.029383-10.029383-18.052889-16.047013-5.014691-5.014691-13.038198-10.029383-16.047013-16.047013-13.038198-13.038198-26.076396-29.085211-39.114594-44.129285-18.052889-24.070519-31.091087-47.1381-44.129285-73.214495-3.008815-5.014691-8.023506-13.038198-8.023506-18.05289l-3.008815-3.008814c0-3.008815-3.008815-5.014691-3.008815-8.023507l5.014692-3.008815c5.014691 3.008815 8.023506 8.023506 13.038197 13.038198 5.014691 8.023506 10.029383 10.029383 16.047013 18.052889 8.023506 3.008815 13.038198 8.023506 18.05289 13.038198 8.023506 5.014691 13.038198 13.038198 24.070519 21.061705 5.014691 3.008815 10.029383 8.023506 16.047012 13.038197 21.061704 16.047013 42.123408 31.091087 65.19099 42.123409 8.023506 5.014691 16.047013 8.023506 26.076395 13.038198 8.023506 3.008815 18.052889 5.014691 26.076396 10.029383 10.029383 3.008815 21.061704 8.023506 31.091087 8.023506 5.014691 3.008815 13.038198 3.008815 18.052889 5.014691 5.014691 0 10.029383 3.008815 16.047013 3.008815 5.014691 0 10.029383 3.008815 16.047013 3.008815H361.057786c8.023506 3.008815 16.047013 0 24.07052 0 5.014691-3.008815 13.038198 0 18.052889 0h13.038198c8.023506 0 16.047013-3.008815 21.061704-3.008815s10.029383-3.008815 16.047013-3.008815c10.029383-3.008815 24.070519-5.014691 34.099902-8.023506 16.047013-3.008815 31.091087-8.023506 44.129285-13.038198 10.029383-3.008815 18.052889-8.023506 29.08521-10.029383 21.061704-8.023506 42.123408-18.052889 60.176298-29.08521 8.023506-5.014691 16.047013-8.023506 24.070519-13.038198l24.070519-16.047013c8.023506-5.014691 16.047013-10.029383 21.061705-16.047013 8.023506-3.008815 13.038198-8.023506 18.052889-13.038197 13.038198-8.023506 24.070519-18.052889 37.108717-26.076396 8.023506-3.008815 13.038198-8.023506 18.052889-10.029383 12.03526-7.020568 25.073457-12.03526 36.105779-12.03526z" fill="#F02325" p-id="48136"></path></svg>