<?xml version="1.0" standalone="no"?><!DOCTYPE svg PUBLIC "-//W3C//DTD SVG 1.1//EN" "http://www.w3.org/Graphics/SVG/1.1/DTD/svg11.dtd"><svg t="1533197832384" class="icon" style="" viewBox="0 0 1024 1024" version="1.1" xmlns="http://www.w3.org/2000/svg" p-id="39970" xmlns:xlink="http://www.w3.org/1999/xlink" width="64" height="64"><defs><style type="text/css"></style></defs><path d="M509.644349 1024c-279.463899 0-509.644349-228.333382-509.644349-510.821151 0-282.488793 227.824799-513.177825 512-513.177825 281.81955 0 512 230.689033 512 513.177825C1024.001023 795.665595 793.820574 1024 509.644349 1024L509.644349 1024zM512.001023 70.614268c-244.251933 0-441.545368 197.73755-441.545368 442.563558 0 242.46831 197.292412 440.206884 439.188694 440.206884 244.251933 0 443.901019-197.738573 443.901019-440.206884C953.546392 270.708492 756.252956 70.614268 512.001023 70.614268L512.001023 70.614268zM805.568129 261.284865 631.770827 619.098203c-4.679579 7.067976-9.391904 14.135952-16.428158 16.491603L263.036765 805.089222c-4.679579 2.356674-9.391904 4.680603-14.071484 4.680603-9.391904 0-18.783809-2.323928-25.850761-9.392928-11.715833-9.423627-14.072507-25.915229-7.036253-40.018436l171.440627-360.171036c2.355651-7.066953 9.391904-14.134929 16.45988-16.491603L758.608607 216.585827c14.072507-7.066953 30.531364-4.711302 39.923268 7.03523C810.280454 235.401358 812.636105 251.892961 805.568129 261.284865L805.568129 261.284865zM512.001023 442.563558c-39.923268 0-70.454632 30.594809-70.454632 70.614268 0 40.018436 30.531364 70.614268 70.454632 70.614268 37.567617 0 70.454632-30.595832 70.454632-70.614268C582.455655 473.158367 549.56864 442.563558 512.001023 442.563558L512.001023 442.563558z" p-id="39971" fill="#707070"></path></svg>