<?xml version="1.0" standalone="no"?><!DOCTYPE svg PUBLIC "-//W3C//DTD SVG 1.1//EN" "http://www.w3.org/Graphics/SVG/1.1/DTD/svg11.dtd"><svg t="1533305610175" class="icon" style="" viewBox="0 0 1024 1024" version="1.1" xmlns="http://www.w3.org/2000/svg" p-id="1895" xmlns:xlink="http://www.w3.org/1999/xlink" width="64" height="64"><defs><style type="text/css"></style></defs><path d="M512.026094 64.73742c-247.02714 0-447.311699 200.237487-447.311699 447.263603 0 247.025093 200.284559 447.261557 447.311699 447.261557 246.976998 0 447.25644-200.236464 447.25644-447.261557C959.283558 264.974907 759.003092 64.73742 512.026094 64.73742zM512.026094 735.63129c-30.902824 0-55.945173-24.993231-55.945173-55.894008 0-30.902824 25.042349-55.896054 55.945173-55.896054 30.901801 0 55.891961 24.993231 55.891961 55.896054C567.918056 710.638059 542.927895 735.63129 512.026094 735.63129zM539.971563 567.897078l-55.94108 0L456.080921 288.36871l111.837134 0L539.971563 567.897078z" p-id="1896" fill="#d81e06"></path></svg>