<?xml version="1.0" standalone="no"?><!DOCTYPE svg PUBLIC "-//W3C//DTD SVG 1.1//EN" "http://www.w3.org/Graphics/SVG/1.1/DTD/svg11.dtd"><svg t="1533364673069" class="icon" style="" viewBox="0 0 1024 1024" version="1.1" xmlns="http://www.w3.org/2000/svg" p-id="2635" xmlns:xlink="http://www.w3.org/1999/xlink" width="64" height="64"><defs><style type="text/css"></style></defs><path d="M512.725315 0.00058a493.214057 493.214057 0 0 0-58.025183 3.336448 507.720353 507.720353 0 0 0-132.442481 33.654607S666.782176 377.164271 675.921142 390.365v-362.657395c-10.29947-3.481511-20.744003-6.672896-31.333598-9.574155A507.720353 507.720353 0 0 0 512.725315 0.00058z" fill="#D71E06" p-id="2636"></path><path d="M872.191324 147.964797a500.467205 500.467205 0 0 0-43.518887-38.441684 507.720353 507.720353 0 0 0-117.355933-69.920345s2.46607 484.07509 0 499.596827l257.341687-256.761436c-4.787078-9.719218-10.009344-19.293373-15.521736-29.012591A507.720353 507.720353 0 0 0 872.191324 147.964797z" fill="#132179" p-id="2637"></path><path d="M985.050306 322.765662S644.587544 667.290187 631.822003 676.139027h362.657395c3.481511-10.29947 6.672896-20.744003 9.574155-31.333599a505.834534 505.834534 0 0 0 17.552618-131.862229 491.90849 491.90849 0 0 0-3.481511-58.025183 503.948716 503.948716 0 0 0-33.654606-132.44248zM480.521338 714.290585L736.847585 971.922398c9.719218-4.787078 19.293373-10.009344 29.012591-15.521736A507.720353 507.720353 0 0 0 979.537913 714.290585s-484.510279 2.46607-499.016575 0z" fill="#1295DB" p-id="2638"></path><path d="M348.078858 633.63558v362.657395c10.29947 3.481511 20.744003 6.672896 31.333598 9.574155A507.720353 507.720353 0 0 0 701.30716 986.428694S357.217824 646.401121 348.078858 633.63558zM311.813118 482.044789L55.051683 738.951288c4.787078 9.864281 10.009344 19.438436 15.521736 29.012591a502.788212 502.788212 0 0 0 80.800068 105.750897 494.229498 494.229498 0 0 0 43.518887 38.296621 504.383905 504.383905 0 0 0 117.500996 69.920345s-2.611133-484.220153 0-499.596827z" fill="#1AF929" p-id="2639"></path><path d="M19.366195 379.485278A507.720353 507.720353 0 0 0 1.813577 511.347507a493.214057 493.214057 0 0 0 3.481511 58.025183 500.177079 500.177079 0 0 0 33.654606 132.442481S378.977268 357.290646 392.177997 348.151679h-362.657395c-3.481511 10.154407-6.672896 20.744003-9.574155 31.333599z" fill="#F4EA2A" p-id="2640"></path><path d="M255.818816 70.211052A507.720353 507.720353 0 0 0 41.850953 311.740877s484.220153-2.611133 499.74189 0L284.686345 54.689315c-9.719218 4.932141-19.438436 10.009344-29.012592 15.521737z" fill="#D71E06" p-id="2641"></path></svg>