<?xml version="1.0" standalone="no"?><!DOCTYPE svg PUBLIC "-//W3C//DTD SVG 1.1//EN" "http://www.w3.org/Graphics/SVG/1.1/DTD/svg11.dtd"><svg t="1533480528910" class="icon" style="" viewBox="0 0 1024 1024" version="1.1" xmlns="http://www.w3.org/2000/svg" p-id="2089" xmlns:xlink="http://www.w3.org/1999/xlink" width="64" height="64"><defs><style type="text/css"></style></defs><path d="M512 288c-124.8 0-224 99.2-224 224s99.2 224 224 224 224-99.2 224-224-99.2-224-224-224z m0 400c-96 0-176-80-176-176s80-176 176-176 176 80 176 176-80 176-176 176z m256-316.8a1.6 1.6 0 1 0 102.4 0 1.6 1.6 0 1 0-102.4 0zM864 224h-96l-22.4-67.2c-6.4-16-25.6-28.8-41.6-28.8H320c-19.2 0-35.2 12.8-41.6 28.8L256 224h-96c-54.4 0-96 41.6-96 96v448c0 54.4 44.8 96 96 96h704c54.4 0 96-41.6 96-96V320c0-54.4-41.6-96-96-96z m48 544c0 25.6-22.4 48-48 48H160c-25.6 0-48-22.4-48-48V320c0-25.6 22.4-48 48-48h131.2l9.6-32 22.4-64h377.6l22.4 64 9.6 32H864c25.6 0 48 22.4 48 48v448z" p-id="2090" fill="#FFFFFF"></path></svg>