<?xml version="1.0" standalone="no"?><!DOCTYPE svg PUBLIC "-//W3C//DTD SVG 1.1//EN" "http://www.w3.org/Graphics/SVG/1.1/DTD/svg11.dtd"><svg t="1533203719405" class="icon" style="" viewBox="0 0 1024 1024" version="1.1" xmlns="http://www.w3.org/2000/svg" p-id="46289" xmlns:xlink="http://www.w3.org/1999/xlink" width="64" height="64"><defs><style type="text/css"></style></defs><path d="M929.92 135.698H94.433c-16.39 0-29.676 13.286-29.676 29.675v526.973c0 16.39 13.286 29.676 29.676 29.676h835.484c16.39 0 29.676-13.286 29.676-29.676V165.373c0.001-16.389-13.285-29.675-29.675-29.675z m-22.037 512.427c0 13.687-11.755 24.782-26.258 24.782h-739.25c-14.502 0-26.258-11.095-26.258-24.782V208.061c0-13.687 11.755-24.782 26.258-24.782h739.25c14.502 0 26.258 11.095 26.258 24.782v440.064z" p-id="46290" fill="#707070"></path><path d="M598.897 824.347c0 16.39-13.286 29.676-29.676 29.676h-114.09c-16.388 0-29.675-13.287-29.675-29.676V730.21c0-16.39 13.287-29.676 29.676-29.676h114.09c16.39 0 29.676 13.287 29.676 29.676v94.136z" p-id="46291" fill="#707070"></path><path d="M742.153 856.579c0 16.39-13.287 29.676-29.676 29.676H308.295c-16.39 0-29.676-13.287-29.676-29.676v-9.718c0-16.39 13.286-29.676 29.676-29.676h404.182c16.39 0 29.676 13.286 29.676 29.676v9.718z" p-id="46292" fill="#707070"></path></svg>