<?xml version="1.0" standalone="no"?><!DOCTYPE svg PUBLIC "-//W3C//DTD SVG 1.1//EN" "http://www.w3.org/Graphics/SVG/1.1/DTD/svg11.dtd"><svg t="1533368092690" class="icon" style="" viewBox="0 0 1024 1024" version="1.1" xmlns="http://www.w3.org/2000/svg" p-id="24749" xmlns:xlink="http://www.w3.org/1999/xlink" width="64" height="64"><defs><style type="text/css"></style></defs><path d="M897.443629 587.980485c0 0-28.076452-15.405875-28.076452-75.978439 0-60.575634 28.076452-75.983555 28.076452-75.983555 41.701774-22.883173 69.307506-61.132312 61.34823-84.999906-7.962346-23.868617-74.836429-71.14741-120.505561-57.837266 0 0-30.752398 8.959046-73.586972-33.875528-42.840714-42.835597-33.875528-73.586972-33.875528-73.586972 13.310144-45.669132 6.031367-92.165096-16.167215-103.322204-22.204721-11.160177-103.787808 2.462075-126.670981 44.163849 0 0-15.408945 28.076452-75.983555 28.076452s-75.983555-28.076452-75.983555-28.076452c-22.883173-41.701774-61.132312-69.310575-84.999906-61.350277-23.868617 7.965415-71.14741 74.839499-57.83829 120.508631 0 0 8.962116 30.752398-33.875528 73.586972-42.835597 42.835597-73.586972 33.875528-73.586972 33.875528-45.669132-13.310144-92.162026-6.037507-103.322204 16.167215s2.462075 103.787808 44.163849 126.670981c0 0 28.076452 15.408945 28.076452 75.983555 0 60.572564-28.076452 75.978439-28.076452 75.978439-41.701774 22.886243-69.307506 61.137429-61.350277 85.006046 7.965415 23.865547 74.839499 71.14741 120.508631 57.83829 0 0 30.752398-8.965186 73.586972 33.875528 42.837644 42.835597 33.875528 73.586972 33.875528 73.586972-13.310144 45.669132-6.031367 92.162026 16.167215 103.322204 22.204721 11.160177 103.787808-2.462075 126.670981-44.163849 0 0 15.408945-28.079522 75.983555-28.079522s75.983555 28.079522 75.983555 28.079522c22.883173 41.701774 61.132312 69.307506 84.999906 61.34516 23.868617-7.960299 71.14741-74.834382 57.83829-120.503515 0 0-8.965186-30.752398 33.875528-73.586972 42.835597-42.840714 73.586972-33.875528 73.586972-33.875528 45.669132 13.310144 92.162026 6.031367 103.322204-16.167215C952.768679 692.449815 939.146427 610.866728 897.443629 587.980485zM513.610684 769.084193c-141.088342 0-255.469416-114.381074-255.469416-255.472486s114.381074-255.469416 255.469416-255.469416c141.091412 0 255.472486 114.378004 255.472486 255.469416S654.702096 769.084193 513.610684 769.084193z" p-id="24750" fill="#1195db"></path></svg>