<?xml version="1.0" standalone="no"?><!DOCTYPE svg PUBLIC "-//W3C//DTD SVG 1.1//EN" "http://www.w3.org/Graphics/SVG/1.1/DTD/svg11.dtd"><svg t="1533482171179" class="icon" style="" viewBox="0 0 1450 1024" version="1.1" xmlns="http://www.w3.org/2000/svg" p-id="4672" xmlns:xlink="http://www.w3.org/1999/xlink" width="90.625" height="64"><defs><style type="text/css"></style></defs><path d="M256 170.666667c0-94.293333 76.544-170.666667 170.538667-170.666667h853.589333A170.325333 170.325333 0 0 1 1450.666667 170.24v683.52A170.496 170.496 0 0 1 1280.128 1024H426.538667A170.709333 170.709333 0 0 1 256 853.333333v-170.666666l-256-170.666667 256-170.666667V170.666667z m256 426.666666a85.333333 85.333333 0 1 0 0-170.666666 85.333333 85.333333 0 0 0 0 170.666666z m341.333333 0a85.333333 85.333333 0 1 0 0-170.666666 85.333333 85.333333 0 0 0 0 170.666666z m341.333334 0a85.333333 85.333333 0 1 0 0-170.666666 85.333333 85.333333 0 0 0 0 170.666666z" fill="#707070" p-id="4673"></path></svg>