<?xml version="1.0" standalone="no"?><!DOCTYPE svg PUBLIC "-//W3C//DTD SVG 1.1//EN" "http://www.w3.org/Graphics/SVG/1.1/DTD/svg11.dtd"><svg t="1533367796206" class="icon" style="" viewBox="0 0 1024 1024" version="1.1" xmlns="http://www.w3.org/2000/svg" p-id="1936" xmlns:xlink="http://www.w3.org/1999/xlink" width="64" height="64"><defs><style type="text/css"></style></defs><path d="M933.28 313.6a126.4 126.4 0 0 0-126.4-126.4H217.12a126.4 126.4 0 0 0-126.4 126.4v421.28a126.4 126.4 0 0 0 126.4 126.4h589.76a126.4 126.4 0 0 0 126.4-126.4V650.64H722.64a126.4 126.4 0 0 1 0-252.8h210.64V313.6z m0 0" p-id="1937" fill="#0061b0"></path><path d="M659.44 524.24a63.2 63.2 0 1 0 63.2-63.2 63.2 63.2 0 0 0-63.2 63.2z m0 0" p-id="1938" fill="#0061b0"></path></svg>