<?xml version="1.0" standalone="no"?><!DOCTYPE svg PUBLIC "-//W3C//DTD SVG 1.1//EN" "http://www.w3.org/Graphics/SVG/1.1/DTD/svg11.dtd"><svg t="1533208078505" class="icon" style="" viewBox="0 0 1024 1024" version="1.1" xmlns="http://www.w3.org/2000/svg" p-id="47300" xmlns:xlink="http://www.w3.org/1999/xlink" width="64" height="64"><defs><style type="text/css"></style></defs><path d="M512 1004.459c77.91 0 141.141-63.062 141.141-141.056H370.86c0.085 77.994 63.232 141.056 141.141 141.056zM213.163 371.2v282.795L89.6 754.005v57.003h602.453L253.696 221.013A297.045 297.045 0 0 0 213.163 371.2zM934.4 754.005l-122.88-100.01V371.2A299.093 299.093 0 0 0 564.907 76.8V54.443a35.243 35.243 0 0 0-35.243-35.158h-35.157a35.243 35.243 0 0 0-35.243 35.158v22.613a296.96 296.96 0 0 0-126.89 55.979L243.626 13.653a28.672 28.672 0 0 0-46.08 34.134l92.16 124.16-0.598 0.682 474.368 638.464h1.11l89.856 121.003a28.672 28.672 0 0 0 46.08-34.133l-64.512-86.87H934.4v-57.002z" p-id="47301" fill="#bfbfbf"></path></svg>